<?xml version="1.0" encoding="UTF-8" standalone="no"?>
<svg
   sodipodi:docname="paperclock.svg"
   inkscape:version="1.1 (c68e22c387, 2021-05-23)"
   id="svg8"
   version="1.1"
   viewBox="0 0 50.799999 50.800002"
   height="192"
   width="192"
   inkscape:export-filename="C:\Users\VERMAUT\Desktop\paperclock.png"
   inkscape:export-xdpi="96"
   inkscape:export-ydpi="96"
   xmlns:inkscape="http://www.inkscape.org/namespaces/inkscape"
   xmlns:sodipodi="http://sodipodi.sourceforge.net/DTD/sodipodi-0.dtd"
   xmlns:xlink="http://www.w3.org/1999/xlink"
   xmlns="http://www.w3.org/2000/svg"
   xmlns:svg="http://www.w3.org/2000/svg"
   xmlns:rdf="http://www.w3.org/1999/02/22-rdf-syntax-ns#"
   xmlns:cc="http://creativecommons.org/ns#"
   xmlns:dc="http://purl.org/dc/elements/1.1/">
  <defs
     id="defs2">
    <rect
       x="-55"
       y="15"
       width="215"
       height="60.000001"
       id="rect3996" />
    <inkscape:path-effect
       effect="fillet_chamfer"
       id="path-effect1465"
       is_visible="true"
       lpeversion="1"
       satellites_param="F,0,0,1,0,4.2333333,0,1 @ F,0,0,1,0,4.2333333,0,1 @ F,0,0,1,0,4.2333333,0,1 @ F,0,0,1,0,4.2333333,0,1"
       unit="px"
       method="auto"
       mode="F"
       radius="16"
       chamfer_steps="1"
       flexible="false"
       use_knot_distance="true"
       apply_no_radius="true"
       apply_with_radius="true"
       only_selected="false"
       hide_knots="false" />
    <inkscape:path-effect
       hide_knots="false"
       only_selected="false"
       apply_with_radius="true"
       apply_no_radius="true"
       use_knot_distance="true"
       flexible="false"
       chamfer_steps="1"
       radius="4"
       mode="F"
       method="auto"
       unit="px"
       satellites_param="F,0,0,1,0,1.0583333,0,1 @ F,0,0,1,0,1.0583333,0,1 @ F,0,0,1,0,1.0583333,0,1 @ F,0,0,1,0,1.0583333,0,1"
       lpeversion="1"
       is_visible="true"
       id="path-effect1461"
       effect="fillet_chamfer" />
    <inkscape:path-effect
       overflow_perspective="false"
       vertical_mirror="false"
       horizontal_mirror="false"
       deform_type="perspective"
       lpeversion="1"
       is_visible="true"
       id="path-effect1459"
       down_right_point="31.499843,22.548889"
       down_left_point="1.5740811,19.842785"
       up_right_point="31.499843,9.2692494"
       up_left_point="1.5740811,11.908536"
       effect="perspective-envelope" />
    <inkscape:path-effect
       hide_knots="false"
       only_selected="false"
       apply_with_radius="true"
       apply_no_radius="true"
       use_knot_distance="true"
       flexible="false"
       chamfer_steps="1"
       radius="0"
       mode="F"
       method="auto"
       unit="px"
       satellites_param="F,0,0,1,0,0,0,1 @ F,0,0,1,0,0,0,1 @ F,0,0,1,0,0,0,1 @ F,0,0,1,0,0,0,1 @ F,0,0,1,0,0,0,1 @ F,0,0,1,0,0,0,1 @ F,0,0,1,0,0,0,1 @ F,0,0,1,0,0,0,1"
       lpeversion="1"
       is_visible="true"
       id="path-effect1457"
       effect="fillet_chamfer" />
    <inkscape:path-effect
       hide_knots="false"
       only_selected="false"
       apply_with_radius="true"
       apply_no_radius="true"
       use_knot_distance="true"
       flexible="false"
       chamfer_steps="1"
       radius="4"
       mode="F"
       method="auto"
       unit="px"
       satellites_param="F,0,0,1,0,1.0583333,0,1 @ F,0,0,1,0,1.0583333,0,1 @ F,0,0,1,0,1.0583333,0,1 @ F,0,0,1,0,1.0583333,0,1"
       lpeversion="1"
       is_visible="true"
       id="path-effect1455"
       effect="fillet_chamfer" />
    <inkscape:path-effect
       update_on_knot_move="true"
       attempt_force_join="true"
       miter_limit="4"
       offset="-1"
       unit="mm"
       linejoin_type="round"
       lpeversion="1"
       is_visible="true"
       id="path-effect1423"
       effect="offset" />
    <inkscape:path-effect
       effect="fillet_chamfer"
       id="path-effect1421"
       is_visible="true"
       lpeversion="1"
       satellites_param="F,0,0,1,0,4.2333333,0,1 @ F,0,0,1,0,4.2333333,0,1 @ F,0,0,1,0,4.2333333,0,1 @ F,0,0,1,0,4.2333333,0,1"
       unit="px"
       method="auto"
       mode="F"
       radius="16"
       chamfer_steps="1"
       flexible="false"
       use_knot_distance="true"
       apply_no_radius="true"
       apply_with_radius="true"
       only_selected="false"
       hide_knots="false" />
    <inkscape:path-effect
       hide_knots="false"
       only_selected="false"
       apply_with_radius="true"
       apply_no_radius="true"
       use_knot_distance="true"
       flexible="false"
       chamfer_steps="1"
       radius="16"
       mode="F"
       method="auto"
       unit="px"
       satellites_param="F,0,0,1,0,4.2333333,0,1 @ F,0,0,1,0,4.2333333,0,1 @ F,0,0,1,0,4.2333333,0,1 @ F,0,0,1,0,4.2333333,0,1"
       lpeversion="1"
       is_visible="true"
       id="path-effect1299"
       effect="fillet_chamfer" />
    <inkscape:path-effect
       only_selected="false"
       apply_with_weight="true"
       apply_no_weight="true"
       helper_size="7"
       steps="1"
       weight="7.5"
       lpeversion="1"
       is_visible="true"
       id="path-effect1297"
       effect="bspline" />
    <radialGradient
       inkscape:collect="always"
       xlink:href="#linearGradient880"
       id="radialGradient884"
       cx="6.2220106"
       cy="6.397593"
       fx="6.2220106"
       fy="6.397593"
       r="14"
       gradientUnits="userSpaceOnUse"
       gradientTransform="matrix(3.4499249,0,0,2.9813444,-15.291858,-12.899819)" />
    <linearGradient
       inkscape:collect="always"
       id="linearGradient880">
      <stop
         style="stop-color:#ccd8ff;stop-opacity:1"
         offset="0"
         id="stop876" />
      <stop
         style="stop-color:#0d2780;stop-opacity:1"
         offset="1"
         id="stop878" />
    </linearGradient>
  </defs>
  <sodipodi:namedview
     inkscape:window-maximized="1"
     inkscape:window-y="363"
     inkscape:window-x="1134"
     inkscape:window-height="1057"
     inkscape:window-width="1858"
     inkscape:pagecheckerboard="true"
     units="px"
     showgrid="true"
     inkscape:document-rotation="0"
     inkscape:current-layer="g837"
     inkscape:document-units="px"
     inkscape:cy="179.25156"
     inkscape:cx="103.23759"
     inkscape:zoom="1.4142136"
     inkscape:pageshadow="2"
     inkscape:pageopacity="0.0"
     borderopacity="1.0"
     bordercolor="#666666"
     pagecolor="#ffffff"
     id="base">
    <inkscape:grid
       id="grid10"
       type="xygrid" />
  </sodipodi:namedview>
  <metadata
     id="metadata5">
    <rdf:RDF>
      <cc:Work
         rdf:about="">
        <dc:format>image/svg+xml</dc:format>
        <dc:type
           rdf:resource="http://purl.org/dc/dcmitype/StillImage" />
      </cc:Work>
    </rdf:RDF>
  </metadata>
  <g
     id="layer1"
     inkscape:groupmode="layer"
     inkscape:label="Calque 1"
     transform="translate(0,16.933333)">
    <g
       id="g837"
       transform="matrix(1.5000001,0,0,1.4999999,-1.0818922e-7,-16.93333)">
      <rect
         ry="3.5277781"
         rx="0"
         y="-2.0000002e-06"
         x="7.2126142e-08"
         height="33.866673"
         width="33.866665"
         id="rect874"
         style="fill:url(#radialGradient884);fill-opacity:1;stroke:none;stroke-width:13.7143;stroke-miterlimit:4;stroke-dasharray:none;stroke-opacity:1"
         inkscape:export-filename="C:\dickson\dev\web\ndf\web\ico\NDF_ios.png"
         inkscape:export-xdpi="256"
         inkscape:export-ydpi="256" />
      <path
         id="rect1940"
         style="fill:#e8dea2;fill-opacity:1;fill-rule:evenodd;stroke:#000000;stroke-width:1.61995;stroke-linecap:round;stroke-linejoin:round;stroke-miterlimit:4;stroke-dasharray:none;stroke-opacity:1"
         d="M 10.85852,8.8335819 2.7587703,16.933333 v 4.049875 c 0,2.243631 1.806244,4.049876 4.049875,4.049876 H 27.05802 c 2.243631,0 4.049875,-1.806245 4.049875,-4.049876 v -8.099751 c 0,-2.243631 -1.806244,-4.0498751 -4.049875,-4.0498751 z" />
      <path
         id="path22430"
         style="font-size:42.6667px;line-height:1.25;font-family:'OCR A Extended';-inkscape-font-specification:'OCR A Extended';letter-spacing:0px;word-spacing:0px;white-space:pre;fill:#000000;stroke-width:0.202494;fill-opacity:1"
         d="m 5.3955394,14.13006 c -0.1856193,0 -0.3459267,0.0675 -0.4809226,0.202493 -0.1349959,0.134996 -0.2024938,0.295304 -0.2024938,0.480923 v 0.166504 l 0.8499202,-0.84992 z m 5.4629806,0 v 0.717033 h 1.940697 v 4.180785 H 10.63902 V 16.933333 H 9.9302922 v 2.119856 c 0,0.188433 0.066355,0.350278 0.1985388,0.485273 0.132184,0.132184 0.293634,0.198144 0.484878,0.198144 h 2.202119 c 0.188432,0 0.348739,-0.06596 0.480923,-0.198144 0.134996,-0.134995 0.202494,-0.29684 0.202494,-0.485273 v -4.239713 c 0,-0.185619 -0.0675,-0.345927 -0.202494,-0.480923 -0.132184,-0.134996 -0.289415,-0.202493 -0.472222,-0.202493 z m 10.192317,0 c -0.185618,0 -0.345926,0.0675 -0.480923,0.202493 -0.134994,0.134996 -0.202494,0.295304 -0.202494,0.480923 v 4.239713 c 0,0.188433 0.06596,0.350278 0.198144,0.485273 0.132184,0.132184 0.294029,0.198144 0.485273,0.198144 h 2.202119 c 0.188433,0 0.348741,-0.06596 0.480923,-0.198144 0.134998,-0.134995 0.202494,-0.29684 0.202494,-0.485273 v -4.239713 c 0,-0.185619 -0.0675,-0.345927 -0.202494,-0.480923 C 23.601697,14.197557 23.44407,14.13006 23.261262,14.13006 Z m 5.21817,0 c -0.185619,0 -0.345928,0.0675 -0.480922,0.202493 -0.134997,0.134996 -0.202494,0.295304 -0.202494,0.480923 v 4.239713 c 0,0.188433 0.06635,0.350278 0.198537,0.485273 0.132184,0.132184 0.293634,0.198144 0.484879,0.198144 h 2.20212 c 0.188431,0 0.348739,-0.06596 0.480923,-0.198144 0.134994,-0.134995 0.202493,-0.29684 0.202493,-0.485273 v -4.239713 c 0,-0.185619 -0.0675,-0.345927 -0.202493,-0.480923 -0.132184,-0.134996 -0.289417,-0.202493 -0.472224,-0.202493 z m -5.192859,0.717033 h 2.159803 v 4.180785 h -2.159803 z m 5.218171,0 h 2.160195 v 4.180785 h -2.160195 z m -9.702694,0.21515 c -0.09844,0 -0.182807,0.03529 -0.253118,0.105597 -0.06749,0.07031 -0.101246,0.153145 -0.101246,0.248767 v 0.611832 c 0,0.10125 0.03221,0.185622 0.0969,0.253117 0.0675,0.0675 0.150728,0.101247 0.249162,0.101247 h 0.725339 c 0.09281,0 0.174501,-0.03529 0.244812,-0.105597 0.07313,-0.07031 0.109552,-0.153145 0.109552,-0.248767 v -0.611832 c 0,-0.08437 -0.03489,-0.164525 -0.105202,-0.240461 -0.07031,-0.07594 -0.15622,-0.113903 -0.257467,-0.113903 z m -11.879502,1.87109 v 2.119856 c 0,0.188433 0.06596,0.350278 0.1981434,0.485273 0.1321837,0.132184 0.294029,0.198144 0.485273,0.198144 H 7.597659 c 0.1884319,0 0.3487391,-0.06596 0.4809226,-0.198144 0.1349961,-0.134995 0.2024938,-0.29684 0.2024938,-0.485273 V 16.933333 H 7.5806527 v 2.094545 H 5.4208511 v -2.094545 z m 11.879502,0.575841 c -0.09844,0 -0.182807,0.03375 -0.253118,0.101247 -0.06749,0.0675 -0.101246,0.151871 -0.101246,0.253117 v 0.611831 c 0,0.09562 0.03221,0.178456 0.0969,0.248768 0.0675,0.07031 0.150728,0.105596 0.249162,0.105596 h 0.725339 c 0.09562,0 0.178851,-0.03528 0.249162,-0.105596 0.07031,-0.07312 0.105202,-0.159033 0.105202,-0.257467 v -0.603132 c 0,-0.09843 -0.03643,-0.181264 -0.109552,-0.248766 -0.07031,-0.07031 -0.154683,-0.105598 -0.253117,-0.105598 z" />
      <path
         id="rect2316"
         style="fill:none;fill-opacity:1;fill-rule:evenodd;stroke:#000000;stroke-width:1.61995;stroke-linecap:round;stroke-linejoin:round;stroke-miterlimit:4;stroke-dasharray:none;stroke-opacity:1"
         d="M 10.85852,8.8335819 2.7587703,16.933333 H 10.85852 Z" />
    </g>
  </g>
</svg>
